<?xml version="1.0" encoding="utf-8"?>
<!-- Generator: Adobe Illustrator 28.1.0, SVG Export Plug-In . SVG Version: 6.00 Build 0)  -->
<svg version="1.1" id="Layer_1" xmlns="http://www.w3.org/2000/svg" xmlns:xlink="http://www.w3.org/1999/xlink" x="0px" y="0px"
	 viewBox="0 0 500 308" style="enable-background:new 0 0 500 308;" xml:space="preserve">
<style type="text/css">
	.st0{display:none;fill:#0B1334;}
	.st1{display:none;}
	.st2{display:inline;fill:#A4A4A4;}
	.st3{fill:#41B8EA;}
	.st4{fill:#AF4F9E;}
	.st5{fill:#FFFFFF;}
	.st6{fill:#EB5CA1;}
	.st7{fill:#00B5E8;}
	.st8{fill:#3360AD;}
	.st9{fill:#92C83E;}
	.st10{fill:#EE2564;}
</style>
<rect x="-1139.8" y="-96.3" class="st0" width="500.9" height="500.9"/>
<rect x="-1.1" y="-96.3" class="st0" width="500.9" height="500.9"/>
<g class="st1">
	<path class="st2" d="M115.2,123.7c-1.1-3.9-4.3-6.6-8.6-6.7c-3.7,0-10.8,0-10.9,0l0,0c-1.4,0-3-0.2-3.1-0.6c0-0.5,2.2-0.6,3.1-0.7
		l0,0c0.6,0,10.2,0,10.4,0c7.5-0.1,11.9-8,8.1-14.7c-2.2-3.8-4.8-4.7-9.6-4.7c-4.4,0-14.4,0-16.2,0c-1.6,0-1.9,0.6-1.9,2
		c0,1.5,0.5,2,2,2c5.1-0.1,8.1,0,12.6,0c1.4,0,2.8,0,4.2,0c3.8,0.1,6.5,2.5,6.3,5.8c-0.1,3.6-2.5,5.9-6.4,5.8l-9.6,0l0,0l0,0l0,0
		l0,0c-3.2,0.2-6.3,0.6-8.6,3.3c-0.8,0.9-0.8,1.4,0,2.3c2.3,2.7,5.4,3,8.6,3.3l0,0c0.2,0,9.9,0,10,0c3,0,5.2,1.8,5.7,4.5
		c0.9,4.1-1.7,7.1-6.4,7.1c-5.7,0-11.4,0.1-17.1,0c-1.6,0-1.9,0.6-1.9,2c0,1.5,0.5,2,2,2c5.8-0.1,11.7,0,17.6-0.1
		c2.1,0,4.1-0.3,5.9-1.5C114.7,132.4,116.3,127.7,115.2,123.7z"/>
	<path class="st2" d="M134,96.9c-0.4-0.7-1.9-0.9-2.5,0l-17.1,38c-0.2,0.4,0,1.1,0.4,1.1l3.8,0c0.5,0,0.9,0,1.1-0.4l13-29.1l13,29.1
		c0.2,0.4,0.6,0.4,1.1,0.4l3.8,0c0.4-0.1,0.6-0.7,0.4-1.1L134,96.9z"/>
	<path class="st2" d="M157.1,96.4h-3.3c-0.5,0-0.8,0.4-0.8,0.8v37.9c0,0.5,0.4,0.9,0.8,0.9h3.3c0.5,0,0.8-0.4,0.8-0.9V97.2
		C158,96.8,157.6,96.4,157.1,96.4z"/>
</g>
<rect x="-564.8" y="-96.3" class="st0" width="500.9" height="500.9"/>
<g class="st1">
	<path class="st2" d="M-443.2,123.7c-1.1-3.9-4.4-6.6-8.6-6.7c-3.7,0-10.9,0-10.9,0l0,0c-1.4,0-3-0.2-3.1-0.6c0-0.5,2.2-0.6,3.1-0.7
		l0,0c0.6,0,10.2,0,10.4,0c7.5-0.1,11.9-8,8.1-14.7c-2.1-3.8-4.8-4.7-9.6-4.7c-4.4,0-14.4,0-16.2,0c-1.6,0-1.9,0.6-1.9,2
		c0,1.5,0.5,2,2,2c5.1-0.1,8,0,12.6,0c1.4,0,2.8,0,4.2,0c3.8,0.1,6.5,2.5,6.3,5.8c-0.1,3.6-2.5,5.9-6.4,5.8l-9.6,0l0,0l0,0l0,0l0,0
		c-3.2,0.2-6.3,0.6-8.6,3.3c-0.8,0.9-0.8,1.4,0,2.3c2.3,2.7,5.4,3,8.6,3.3l0,0c0.2,0,9.9,0,10,0c3,0,5.2,1.8,5.7,4.5
		c0.9,4.1-1.7,7.1-6.4,7.1c-5.7,0-11.4,0.1-17.1,0c-1.6,0-1.9,0.6-1.9,2c0,1.5,0.5,2,2,2c5.9-0.1,11.7,0,17.5-0.1
		c2,0,4.1-0.3,5.9-1.5C-443.7,132.4-442.1,127.7-443.2,123.7z"/>
	<path class="st2" d="M-424.4,96.9c-0.4-0.7-1.9-0.9-2.5,0l-17.1,38c-0.2,0.4,0,1.1,0.4,1.1l3.8,0c0.5,0,0.9,0,1.1-0.4l13-29.1
		l13,29.1c0.2,0.4,0.6,0.4,1.1,0.4l3.8,0c0.4-0.1,0.6-0.7,0.4-1.1L-424.4,96.9z"/>
	<path class="st2" d="M-401.2,96.4h-3.3c-0.5,0-0.8,0.4-0.8,0.8v37.9c0,0.5,0.4,0.9,0.8,0.9h3.3c0.5,0,0.8-0.4,0.8-0.9V97.2
		C-400.4,96.8-400.8,96.4-401.2,96.4z"/>
</g>
<g>
	<polygon class="st3" points="109.6,128.3 91.3,128.3 77.9,128.3 59.7,128.3 59.7,138.9 77.9,138.9 77.9,189 91.3,189 91.3,138.9 
		109.6,138.9 	"/>
	<path class="st3" d="M130.5,128.3v45.4c0,1.5,0.4,2.6,1.2,3.3c0.8,0.8,2,1.1,3.5,1.1h21.2l0.6,10.1c-4.2,0.5-8.5,0.8-13.1,0.8
		c-4.5,0.1-9.1,0.1-13.6,0.1c-4.4,0-7.7-1.2-10-3.6c-2.3-2.4-3.4-5.4-3.4-9.1v-48.3L130.5,128.3L130.5,128.3z"/>
	<path class="st4" d="M187.1,127.3c2.9,0,5.3,0.1,7.3,0.2c2,0.2,3.9,0.4,5.6,0.7s3.5,0.7,5.3,1.2l-1.1,9.9c-1.9-0.1-3.7-0.2-5.3-0.3
		s-3.3-0.1-5.2-0.1s-4.1,0-6.6,0c-3,0-5.3,0.6-7,1.8s-2.9,3.2-3.6,6.1s-1.1,6.9-1.1,12s0.4,9.1,1.1,12s1.9,4.9,3.6,6.1s4,1.8,7,1.8
		c4,0,7.4-0.1,10.2-0.2c2.8-0.1,5.5-0.3,8.2-0.6l1.1,9.9c-2.8,0.9-5.7,1.5-8.6,1.9s-6.6,0.6-10.9,0.6c-6.3,0-11.3-1-15.1-3
		s-6.5-5.3-8.2-9.9c-1.7-4.6-2.5-10.7-2.5-18.5c0-7.7,0.8-13.9,2.5-18.5c1.7-4.6,4.4-7.9,8.2-9.9S180.8,127.3,187.1,127.3z"/>
	<g>
		<path class="st5" d="M282.4,61.3v6.3h-34.3v-6.3H282.4z M269.2,61.3v42.8h-7.8V61.3H269.2z"/>
		<path class="st5" d="M295.4,60.7l0.1,11.2c0,1.5-0.1,3-0.2,4.3c-0.1,1.3-0.3,2.5-0.6,3.4l0.7,0.9v23.6h-7.5V60.7
			C287.9,60.7,295.4,60.7,295.4,60.7z M307.9,72.9c5.7,0,8.5,2.8,8.5,8.4v22.8h-7.6V83.6c0-1.7-0.3-2.8-0.8-3.4s-1.5-0.9-2.9-0.9
			c-1.5,0-3.1,0.3-4.7,1c-1.6,0.7-3.6,1.7-5.8,3l-0.6-4.3c2.3-1.9,4.6-3.4,7-4.4C303.3,73.5,305.6,72.9,307.9,72.9z"/>
		<path class="st5" d="M338.4,72.9c3.7,0,6.7,0.5,8.9,1.6c2.2,1,3.8,2.7,4.8,5.1c1,2.4,1.5,5.5,1.5,9.4c0,3.9-0.5,7-1.5,9.3
			c-1,2.3-2.6,4-4.8,5.1c-2.2,1.1-5.2,1.6-8.9,1.6c-3.6,0-6.6-0.5-8.8-1.6s-3.8-2.8-4.8-5.1s-1.5-5.4-1.5-9.3c0-3.9,0.5-7,1.5-9.4
			c1-2.4,2.6-4.1,4.8-5.1C331.9,73.5,334.8,72.9,338.4,72.9z M338.4,78.7c-1.8,0-3.3,0.3-4.3,0.9s-1.8,1.6-2.3,3.1
			c-0.5,1.5-0.7,3.6-0.7,6.3c0,2.7,0.2,4.8,0.7,6.3c0.5,1.5,1.2,2.5,2.3,3.1c1,0.6,2.5,0.9,4.3,0.9c1.9,0,3.3-0.3,4.4-0.9
			s1.8-1.6,2.3-3.1c0.4-1.5,0.6-3.6,0.6-6.3s-0.2-4.8-0.6-6.3c-0.4-1.5-1.2-2.5-2.3-3.1C341.8,78.9,340.3,78.7,338.4,78.7z"/>
		<path class="st5" d="M367.9,73.7v20.6c0,1.5,0.3,2.6,0.9,3.3c0.6,0.7,1.7,1,3.1,1s2.9-0.3,4.3-0.9c1.5-0.6,3.2-1.6,5.3-2.8
			l0.7,4.5c-2.3,1.9-4.5,3.3-6.7,4.2c-2.1,0.9-4.4,1.4-6.7,1.4c-5.7,0-8.5-2.8-8.5-8.4V73.7H367.9z M388.3,73.7v30.4h-6l-0.8-5.9
			l-0.7-0.9V73.7H388.3z"/>
		<path class="st5" d="M400.7,90.4l3.8,0.6c-0.6,0.5-1,1.1-1.3,1.9c-0.2,0.8-0.2,1.5,0.2,2.2s1.1,1.1,2.3,1.3l11.3,1.5
			c3.1,0.4,5.2,1.3,6.5,2.7c1.2,1.4,1.9,3.5,1.9,6.2c0,2.5-0.5,4.5-1.5,5.9c-1,1.4-2.6,2.4-4.9,2.9c-2.2,0.6-5.3,0.8-9.1,0.8
			c-3,0-5.5-0.2-7.5-0.5s-3.6-0.8-4.7-1.6s-2-1.7-2.5-2.8s-0.7-2.6-0.7-4.2c0-1.3,0.2-2.4,0.6-3.3s1.1-1.7,2.1-2.4
			c1-0.7,2.3-1.4,4-2l4.2-1.8l2.9,1.1l-2.7,1.9c-1,0.7-1.7,1.3-2.3,1.9s-1,1.1-1.3,1.7c-0.3,0.6-0.4,1.3-0.4,2.1
			c0,1.2,0.2,2.1,0.7,2.7s1.3,1,2.5,1.3c1.2,0.2,2.9,0.3,5,0.3c2.2,0,3.9-0.1,5.1-0.3c1.2-0.2,2-0.6,2.5-1.2s0.7-1.5,0.7-2.6
			c0-0.9-0.1-1.6-0.4-2c-0.3-0.4-0.8-0.8-1.5-1s-1.8-0.4-3.1-0.6l-10.2-1.2c-1.5-0.2-2.6-0.6-3.4-1.3c-0.9-0.7-1.4-1.5-1.8-2.5
			s-0.4-1.9-0.3-2.9s0.5-1.9,1-2.7C399.1,91.3,399.8,90.7,400.7,90.4z M409.7,72.9c3.4,0,6.1,0.3,8.1,1c2,0.6,3.4,1.7,4.3,3.1
			s1.3,3.3,1.3,5.6c0,2.2-0.4,4.1-1.3,5.5s-2.3,2.5-4.3,3.1c-2,0.7-4.8,1-8.2,1c-3.4,0-6.1-0.3-8.1-1c-2-0.7-3.5-1.7-4.3-3.1
			c-0.9-1.4-1.3-3.2-1.3-5.5c0-2.3,0.5-4.2,1.3-5.6s2.4-2.5,4.4-3.1C403.5,73.3,406.2,72.9,409.7,72.9z M409.6,77.8
			c-2.6,0-4.4,0.3-5.4,1.1c-1,0.7-1.5,1.9-1.5,3.7c0,1.7,0.5,2.9,1.5,3.6c1,0.7,2.8,1.1,5.4,1.1c2.6,0,4.4-0.4,5.4-1.1
			c1-0.7,1.5-1.9,1.5-3.6c0-1.8-0.5-3-1.5-3.7C414,78.2,412.2,77.8,409.6,77.8z M427,73.7l-0.4,3.5l-7.9,0.9l-2.2-4.3H427z"/>
		<path class="st5" d="M439.7,60.7l0.1,11.2c0,1.5-0.1,3-0.2,4.3c-0.1,1.3-0.3,2.5-0.6,3.4l0.7,0.9v23.6h-7.5V60.7
			C432.1,60.7,439.7,60.7,439.7,60.7z M452.2,72.9c5.7,0,8.5,2.8,8.5,8.4v22.8h-7.6V83.6c0-1.7-0.3-2.8-0.8-3.4s-1.5-0.9-2.9-0.9
			c-1.5,0-3.1,0.3-4.7,1c-1.6,0.7-3.6,1.7-5.8,3l-0.6-4.3c2.3-1.9,4.6-3.4,7-4.4C447.6,73.5,449.9,72.9,452.2,72.9z"/>
		<path class="st5" d="M488,73.7v5.2h-22V74l6-0.3H488z M479,65v30c0,1.3,0.3,2.2,0.8,2.7s1.5,0.8,2.9,0.8h4.2l0.8,5.3
			c-0.7,0.2-1.5,0.4-2.5,0.6c-1,0.2-2,0.3-2.9,0.3s-1.8,0.1-2.4,0.1c-2.6,0-4.7-0.7-6.2-2.1s-2.2-3.5-2.2-6.2V65H479z"/>
		<path class="st5" d="M259.2,131.2v32.9c0,1.2,0.3,2.1,1,2.7c0.6,0.6,1.6,0.9,2.8,0.9h15.1l0.4,5.9c-2.8,0.2-5.7,0.4-8.8,0.5
			c-3,0.1-6,0.1-9,0.1c-3.1,0-5.4-0.8-6.9-2.4s-2.2-3.7-2.2-6.1v-34.3L259.2,131.2L259.2,131.2z"/>
		<path class="st5" d="M297.2,142.8c4.9,0,8.5,0.9,10.6,2.6c2.1,1.7,3.2,4.2,3.3,7.6c0,2.8-0.6,4.9-2,6.3c-1.3,1.4-3.6,2.1-6.7,2.1
			h-17.4v-4.6h15.3c1.4,0,2.3-0.4,2.7-1.1c0.4-0.7,0.6-1.6,0.6-2.7c0-1.7-0.5-2.9-1.5-3.5s-2.5-1-4.7-1c-1.9,0-3.5,0.3-4.5,0.8
			c-1.1,0.5-1.8,1.5-2.3,2.9c-0.4,1.4-0.6,3.4-0.6,6.1c0,2.8,0.3,5,0.8,6.5s1.4,2.6,2.7,3.1c1.2,0.6,2.9,0.8,5,0.8
			c1.5,0,3.3-0.1,5.3-0.2c2-0.1,3.9-0.3,5.8-0.5l0.7,4.8c-1.1,0.5-2.4,0.8-3.9,1.1s-2.9,0.5-4.5,0.6s-3,0.2-4.4,0.2
			c-3.7,0-6.7-0.6-9-1.6s-3.9-2.8-4.9-5.2s-1.5-5.4-1.5-9.1c0-4,0.5-7.2,1.5-9.5c1-2.3,2.6-4,4.8-5
			C290.9,143.3,293.7,142.8,297.2,142.8z"/>
		<path class="st5" d="M341.3,155.3l-0.1,4.6h-14c-1.2,0-2.1,0.4-2.7,1s-0.8,1.5-0.8,2.5v1.7c0,1.2,0.3,2.2,1,2.8
			c0.7,0.6,1.7,1,3.1,1c1.1,0,2.4-0.2,3.7-0.7c1.4-0.4,2.7-1.1,4.1-2c1.3-0.9,2.5-1.9,3.6-3.1v3.9c-0.4,0.6-1,1.4-1.8,2.2
			c-0.8,0.9-1.8,1.7-2.9,2.5c-1.1,0.8-2.4,1.5-3.9,2.1c-1.5,0.5-3.1,0.8-4.9,0.8c-1.8,0-3.5-0.3-4.9-1s-2.6-1.6-3.4-2.9
			c-0.8-1.3-1.2-2.8-1.2-4.7v-3.2c0-2.4,0.8-4.3,2.4-5.6c1.6-1.3,3.8-2,6.5-2L341.3,155.3L341.3,155.3z M333.2,142.8
			c2.4,0,4.5,0.3,6.2,1c1.7,0.6,3,1.7,3.8,3.2c0.9,1.5,1.3,3.6,1.3,6.3V174h-6l-1-6.6l-0.6-0.9v-13.3c0-1.6-0.4-2.8-1.1-3.5
			c-0.7-0.7-2.2-1.1-4.3-1.1c-1.6,0-3.5,0.1-5.9,0.2s-4.8,0.3-7.2,0.5l-0.7-5.1c1.5-0.3,3.1-0.5,4.9-0.7c1.8-0.2,3.7-0.4,5.5-0.5
			C330,142.9,331.7,142.8,333.2,142.8z"/>
		<path class="st5" d="M363,142.8c2.1,0,4.1,0.3,6.1,0.8s3.8,1.5,5.4,2.8l-0.5,3.8c-1.6-0.4-3.1-0.9-4.3-1.2
			c-1.3-0.3-2.7-0.5-4.3-0.5c-1.5,0-2.7,0.3-3.6,0.8c-0.9,0.5-1.5,1.5-2,2.9c-0.4,1.4-0.6,3.6-0.6,6.3c0,2.6,0.2,4.7,0.6,6.1
			c0.4,1.4,1,2.4,1.9,3c0.9,0.6,2,0.8,3.4,0.8c1.1,0,2.1-0.1,3-0.4c0.9-0.3,1.8-0.7,2.7-1.2c0.9-0.6,2-1.3,3.2-2.1l0.6,4.2
			c-1.4,1.6-3.1,3-5.2,4.1c-2,1.1-4.4,1.7-7.1,1.7c-3.9,0-6.6-1.4-8.3-4.1c-1.6-2.8-2.5-6.8-2.5-12c0-4,0.4-7.2,1.3-9.5
			c0.9-2.3,2.1-3.9,3.8-4.9C358.3,143.3,360.4,142.8,363,142.8z M380.6,130.6V174h-5.9l-0.8-5.5l-0.8-0.6v-20.3l0.4-0.9
			c-0.2-1.2-0.3-2.4-0.3-3.6s-0.1-2.5-0.1-3.8v-8.7L380.6,130.6L380.6,130.6z"/>
		<path class="st5" d="M402.6,142.8c4.9,0,8.5,0.9,10.6,2.6c2.1,1.7,3.2,4.2,3.3,7.6c0,2.8-0.6,4.9-2,6.3c-1.3,1.4-3.6,2.1-6.7,2.1
			h-17.4v-4.6h15.3c1.4,0,2.3-0.4,2.7-1.1c0.4-0.7,0.6-1.6,0.6-2.7c0-1.7-0.5-2.9-1.5-3.5s-2.5-1-4.7-1c-1.9,0-3.5,0.3-4.5,0.8
			s-1.8,1.5-2.3,2.9c-0.4,1.4-0.6,3.4-0.6,6.1c0,2.8,0.3,5,0.8,6.5s1.4,2.6,2.7,3.1c1.2,0.6,2.9,0.8,5,0.8c1.5,0,3.3-0.1,5.3-0.2
			c2-0.1,3.9-0.3,5.8-0.5l0.7,4.8c-1.1,0.5-2.4,0.8-3.8,1.1c-1.5,0.3-3,0.5-4.5,0.6s-3,0.2-4.4,0.2c-3.7,0-6.7-0.6-9-1.6
			s-3.9-2.8-4.9-5.2c-1-2.4-1.5-5.4-1.5-9.1c0-4,0.5-7.2,1.5-9.5c1-2.3,2.6-4,4.8-5C396.3,143.3,399.1,142.8,402.6,142.8z"/>
		<path class="st5" d="M429.1,143.6l1,5.9l0.7,0.9V174h-7.5v-30.4H429.1z M444,142.8l-0.7,6.9h-2.2c-1.6,0-3.2,0.3-4.9,0.8
			c-1.6,0.5-3.7,1.3-6.2,2.4l-0.5-4.4c2.1-1.8,4.3-3.2,6.6-4.2c2.2-1,4.4-1.5,6.5-1.5H444z"/>
		<path class="st5" d="M460.1,142.8c1.4,0,2.9,0,4.6,0.1c1.6,0.1,3.2,0.2,4.8,0.3c1.6,0.1,3,0.3,4.2,0.6l-0.5,4.9
			c-2,0-4-0.1-5.9-0.2s-3.9-0.1-5.8-0.1c-1.7,0-3,0-4,0.1s-1.6,0.3-2,0.7s-0.6,1.1-0.6,2.1c0,1.2,0.3,2,1,2.4
			c0.7,0.4,1.7,0.8,3.2,1.1l8.3,1.9c2.5,0.6,4.3,1.6,5.5,2.8c1.2,1.3,1.8,3.2,1.8,5.8c0,2.5-0.5,4.4-1.4,5.7
			c-0.9,1.3-2.4,2.2-4.4,2.7c-2,0.5-4.6,0.7-7.7,0.7c-1.2,0-3-0.1-5.3-0.1c-2.4-0.1-4.9-0.4-7.8-0.8l0.5-4.9c0.8,0,1.8,0,3,0.1
			s2.4,0.1,3.7,0.1c1.3,0,2.6,0,4,0c2.2,0,3.9-0.1,5-0.2s2-0.5,2.5-0.9c0.5-0.5,0.7-1.2,0.7-2.1c0-1.2-0.4-1.9-1.1-2.3
			c-0.8-0.4-1.9-0.8-3.4-1.1l-8.1-2c-1.9-0.5-3.3-1.1-4.3-1.9c-1-0.8-1.8-1.7-2.2-2.9c-0.5-1.1-0.7-2.5-0.7-4.2c0-2.2,0.4-4,1.3-5.2
			c0.9-1.2,2.2-2.1,4-2.6C454.6,143,457,142.8,460.1,142.8z"/>
		<path class="st5" d="M267.7,200.4c1.9,0,3.6,0.1,5,0.2c1.4,0.1,2.6,0.2,3.8,0.4c1.2,0.2,2.4,0.4,3.6,0.8l-0.7,5.8
			c-1.3-0.1-2.5-0.2-3.6-0.2s-2.3-0.1-3.6-0.1s-2.8-0.1-4.5-0.1c-2.4,0-4.3,0.5-5.6,1.4c-1.4,0.9-2.3,2.5-2.9,4.8
			c-0.6,2.2-0.8,5.3-0.8,9.2s0.3,7,0.8,9.2c0.6,2.2,1.5,3.8,2.9,4.8c1.4,0.9,3.2,1.4,5.6,1.4c2.8,0,5.1-0.1,7-0.2
			c1.9-0.1,3.7-0.3,5.5-0.5l0.7,5.7c-1.9,0.6-3.8,1-5.8,1.2s-4.5,0.4-7.4,0.4c-4.3,0-7.7-0.7-10.3-2.1s-4.4-3.8-5.6-7
			s-1.7-7.6-1.7-13s0.6-9.8,1.7-13s3-5.6,5.6-7C260,201.1,263.4,200.4,267.7,200.4z"/>
		<path class="st5" d="M292.7,200.2c1.5,0,2.2,0.7,2.2,2.2v3.5c0,1.5-0.7,2.2-2.2,2.2h-3.4c-1.5,0-2.2-0.7-2.2-2.2v-3.5
			c0-1.5,0.7-2.2,2.2-2.2H292.7z M294.8,213.4v30.4h-7.4v-30.4H294.8z"/>
		<path class="st5" d="M309.3,213.4l1,5.9l0.7,0.9v23.6h-7.5v-30.4L309.3,213.4L309.3,213.4z M324.2,212.7l-0.7,6.9h-2.2
			c-1.6,0-3.2,0.3-4.9,0.8c-1.6,0.5-3.7,1.3-6.2,2.4l-0.5-4.4c2.1-1.8,4.3-3.2,6.6-4.2c2.2-1,4.4-1.5,6.5-1.5H324.2z"/>
		<path class="st5" d="M342.3,212.7c1,0,2.2,0,3.4,0.1s2.5,0.2,3.8,0.5s2.4,0.6,3.5,1.1l-0.9,4.7c-1.5-0.1-3-0.1-4.6-0.2
			c-1.5,0-2.8-0.1-3.9-0.1c-2.1,0-3.8,0.3-5,0.8s-2.1,1.6-2.6,3c-0.5,1.4-0.8,3.4-0.8,6s0.3,4.6,0.8,6c0.5,1.4,1.4,2.4,2.6,3
			s2.9,0.9,5,0.9c0.6,0,1.4,0,2.5-0.1s2.1-0.1,3.3-0.2s2.3-0.2,3.4-0.3l0.7,4.8c-1.6,0.7-3.4,1.1-5.4,1.4s-4,0.4-5.9,0.4
			c-3.6,0-6.5-0.5-8.7-1.6s-3.8-2.7-4.7-5.1s-1.5-5.5-1.5-9.4s0.5-7.1,1.5-9.4s2.6-4,4.8-5C335.7,213.2,338.6,212.7,342.3,212.7z"/>
		<path class="st5" d="M367.2,200.5l-0.1,34.2c0,1.2,0.3,2,1,2.6c0.7,0.6,1.6,0.9,2.9,0.9h2.7l0.9,5.3c-0.5,0.2-1.1,0.4-1.9,0.6
			c-0.8,0.2-1.6,0.3-2.5,0.3s-1.6,0.1-2.2,0.1c-2.5,0-4.5-0.7-6-2.1s-2.2-3.3-2.2-5.9v-36.1L367.2,200.5L367.2,200.5z"/>
		<path class="st5" d="M392.7,212.7c4.9,0,8.5,0.9,10.6,2.6c2.1,1.7,3.2,4.2,3.3,7.6c0,2.8-0.6,4.9-2,6.3c-1.3,1.4-3.6,2.1-6.7,2.1
			h-17.4v-4.6H396c1.4,0,2.3-0.4,2.7-1.1c0.4-0.7,0.6-1.6,0.6-2.7c0-1.7-0.5-2.9-1.5-3.5s-2.5-1-4.7-1c-1.9,0-3.5,0.3-4.5,0.8
			s-1.8,1.5-2.3,2.9s-0.6,3.4-0.6,6.1c0,2.8,0.3,5,0.8,6.5s1.4,2.6,2.7,3.1c1.2,0.6,2.9,0.8,5,0.8c1.5,0,3.3-0.1,5.3-0.2
			c2-0.1,3.9-0.3,5.8-0.5l0.7,4.8c-1.1,0.5-2.4,0.8-3.8,1.1c-1.5,0.3-3,0.5-4.5,0.6s-3,0.2-4.4,0.2c-3.7,0-6.7-0.6-9-1.6
			s-3.9-2.8-4.9-5.2c-1-2.4-1.5-5.4-1.5-9.1c0-4,0.5-7.2,1.5-9.5c1-2.3,2.6-4,4.8-5C386.4,213.2,389.2,212.7,392.7,212.7z"/>
	</g>
	<path class="st6" d="M114,53.3C82.9,59,56.6,78.6,42.1,105.5L114,53.3z"/>
	<path class="st7" d="M222.6,105.7c-14.5-27-40.9-46.8-72.1-52.4L222.6,105.7z"/>
	<path class="st8" d="M30.7,141.3c-0.5,4.2-0.8,8.5-0.8,12.9c0,27.1,10.6,51.8,27.8,70.1L30.7,141.3z"/>
	<path class="st9" d="M206.9,224.5c17.3-18.4,27.9-43.1,27.9-70.3c0-4.4-0.3-8.8-0.8-13.1L206.9,224.5z"/>
	<path class="st10" d="M89,247c13.2,6.2,27.9,9.6,43.4,9.6s30.2-3.4,43.4-9.6L89,247L89,247z"/>
</g>
</svg>
