<?xml version="1.0" encoding="utf-8"?>
<!-- Generator: Adobe Illustrator 28.1.0, SVG Export Plug-In . SVG Version: 6.00 Build 0)  -->
<svg version="1.1" id="Layer_1" xmlns="http://www.w3.org/2000/svg" xmlns:xlink="http://www.w3.org/1999/xlink" x="0px" y="0px"
	 viewBox="0 0 1080 1080" style="enable-background:new 0 0 1080 1080;" xml:space="preserve">
<style type="text/css">
	.st0{fill:url(#SVGID_1_);}
	.st1{fill:#FF0000;}
	.st2{fill:url(#SVGID_00000049917713442777416600000007337464603465174200_);}
	.st3{fill:url(#SVGID_00000010306201279480545440000017521667716276306306_);}
	.st4{fill:url(#SVGID_00000059994612232925716900000002733840246847028104_);}
	.st5{fill:url(#SVGID_00000005268540094432286640000002706271294599238566_);}
	.st6{fill:url(#SVGID_00000087385400935265717890000018341669598249970575_);}
	.st7{fill:url(#SVGID_00000052825400479667315340000002556645054967163008_);}
	.st8{fill:#32DAD4;}
</style>
<g id="Layer_2_00000158741864433716197730000009462756844974462105_">
	
		<linearGradient id="SVGID_1_" gradientUnits="userSpaceOnUse" x1="420.376" y1="565.6348" x2="485.3772" y2="566.6505" gradientTransform="matrix(1 0 0 -1 0 1080)">
		<stop  offset="0" style="stop-color:#CCF6FF"/>
		<stop  offset="0.5201" style="stop-color:#32DAD4"/>
		<stop  offset="1" style="stop-color:#1FC7C1"/>
	</linearGradient>
	<path class="st0" d="M443.5,93.1l2.3,105.2c0.8,35.1,1,70.2,1.5,105.2c1.1,70.2,1.1,140.3,1.5,210.5c0.6,70.2-0.1,140.3-0.4,210.5
		l-1.6,105.2c-0.2,17.5-0.8,35.1-1.2,52.6c-0.4,17.5-0.9,35.1-1.6,52.6h-0.8L443.5,93.1z"/>
</g>
<g id="Layer_1_00000098933309102425312350000007718287703612586903_">
	<g>
		<g>
			<path class="st1" d="M446.6,596.3L446.6,596.3L446.6,596.3z"/>
			<path class="st1" d="M446.6,596.3L446.6,596.3L446.6,596.3z"/>
			<polygon class="st1" points="446.6,596.3 446.6,596.3 446.6,596.3 			"/>
			<polygon class="st1" points="444.9,598.5 446.6,596.3 444.9,596.8 			"/>
			<polygon class="st1" points="444.9,595.8 444.9,596.8 446.6,596.3 446.6,596.3 			"/>
			<polygon class="st1" points="446.6,596.3 444.9,594.1 444.9,595.8 			"/>
			
				<linearGradient id="SVGID_00000048470520983944635680000012265813812674447252_" gradientUnits="userSpaceOnUse" x1="321.144" y1="316.0576" x2="226.997" y2="402.2487" gradientTransform="matrix(1 0 0 -1 0 1080)">
				<stop  offset="0" style="stop-color:#CCF6FF"/>
				<stop  offset="0.5201" style="stop-color:#32DAD4"/>
				<stop  offset="1" style="stop-color:#1FC7C1"/>
			</linearGradient>
			<polygon style="fill:url(#SVGID_00000048470520983944635680000012265813812674447252_);" points="444.9,596.8 247.9,660.8 
				200.9,934.3 444.9,598.5 			"/>
			
				<linearGradient id="SVGID_00000084498491211661367680000016640992415073156252_" gradientUnits="userSpaceOnUse" x1="426.7398" y1="248.8684" x2="325.6444" y2="311.8892" gradientTransform="matrix(1 0 0 -1 0 1080)">
				<stop  offset="0" style="stop-color:#CCF6FF"/>
				<stop  offset="0.5201" style="stop-color:#32DAD4"/>
				<stop  offset="1" style="stop-color:#1FC7C1"/>
			</linearGradient>
			<polygon style="fill:url(#SVGID_00000084498491211661367680000016640992415073156252_);" points="200.9,934.3 444.9,805.2 
				444.9,598.5 			"/>
			
				<linearGradient id="SVGID_00000119088438915744898350000009463511545555639938_" gradientUnits="userSpaceOnUse" x1="211.8786" y1="429.6295" x2="247.6807" y2="550.2944" gradientTransform="matrix(1 0 0 -1 0 1080)">
				<stop  offset="0" style="stop-color:#CCF6FF"/>
				<stop  offset="0.5201" style="stop-color:#32DAD4"/>
				<stop  offset="1" style="stop-color:#1FC7C1"/>
			</linearGradient>
			<polygon style="fill:url(#SVGID_00000119088438915744898350000009463511545555639938_);" points="444.9,595.8 49.1,467.2 
				247.9,660.8 444.9,596.8 			"/>
			
				<linearGradient id="SVGID_00000152237632791997251530000006613481422373674919_" gradientUnits="userSpaceOnUse" x1="323.8" y1="692.1" x2="444.9" y2="692.1" gradientTransform="matrix(1 0 0 -1 0 1080)">
				<stop  offset="0" style="stop-color:#CCF6FF"/>
				<stop  offset="0.5201" style="stop-color:#32DAD4"/>
				<stop  offset="1" style="stop-color:#1FC7C1"/>
			</linearGradient>
			<polygon style="fill:url(#SVGID_00000152237632791997251530000006613481422373674919_);" points="444.9,181.7 323.8,427.3 
				444.9,594.1 			"/>
			
				<linearGradient id="SVGID_00000044892387071724310550000011346137736729016760_" gradientUnits="userSpaceOnUse" x1="250.8266" y1="555.6314" x2="309.1694" y2="664.3611" gradientTransform="matrix(1 0 0 -1 0 1080)">
				<stop  offset="0" style="stop-color:#CCF6FF"/>
				<stop  offset="0.5201" style="stop-color:#32DAD4"/>
				<stop  offset="1" style="stop-color:#1FC7C1"/>
			</linearGradient>
			<polygon style="fill:url(#SVGID_00000044892387071724310550000011346137736729016760_);" points="444.9,594.1 323.8,427.3 
				49.1,467.2 444.9,595.8 			"/>
			
				<linearGradient id="SVGID_00000020401143416490878460000002565265464173185669_" gradientUnits="userSpaceOnUse" x1="446.3979" y1="458.7139" x2="198.5811" y2="594.81" gradientTransform="matrix(1 0 0 -1 0 1080)">
				<stop  offset="0" style="stop-color:#CCF6FF"/>
				<stop  offset="0.5201" style="stop-color:#32DAD4"/>
				<stop  offset="1" style="stop-color:#1FC7C1"/>
			</linearGradient>
			<polygon style="fill:url(#SVGID_00000020401143416490878460000002565265464173185669_);" points="444.9,300.9 444.1,299.2 
				357.9,474.4 153.7,499.9 296.2,643.2 283.4,717.5 265.2,842.6 335.9,803.3 444.9,749.8 			"/>
		</g>
	</g>
</g>
<g id="Layer_3">
	<g>
		<path class="st8" d="M545,447.4c-5.8,0-11.1-0.7-16-2.3c-4.9-1.5-9.2-3.7-12.9-6.7c-3.7-3-6.4-6.7-8.3-11.2
			c-1.9-4.5-2.6-9.7-2.2-15.7h22c-0.2,5.5,1.4,9.4,4.7,11.9s7.7,3.7,13.2,3.7c3,0,5.8-0.5,8.4-1.5c2.6-1,4.8-2.5,6.4-4.5
			c1.6-2,2.4-4.6,2.4-7.8c0-5.1-1.7-8.8-5-11.1c-3.4-2.3-7.4-3.5-12.2-3.5h-11.4l0.1-18.9h10.4c3.7,0,6.6-0.6,8.7-1.9
			c2.2-1.3,3.7-2.9,4.6-4.8c0.9-2,1.4-4,1.4-6.1c0-4.5-1.4-7.8-4.1-9.8c-2.8-2.1-6-3.1-9.7-3.1c-4.2,0-7.5,1.1-10.1,3.3
			c-2.6,2.2-3.8,5.8-3.6,10.9h-22.5c0-7.3,1.4-13.5,3.9-18.5c2.6-5.1,6.5-8.9,11.9-11.5c5.4-2.6,12.2-3.9,20.5-3.9
			c11.8,0,20.7,2.7,26.6,8.2c5.9,5.5,8.9,12.7,8.9,21.6c0,3.9-0.9,7.5-2.6,11.1c-1.7,3.5-4.1,6.5-7.2,9c-3.1,2.5-6.8,4.1-11.2,4.9
			c7.3,0.5,13.3,3,18.1,7.4s7.1,10.9,7.1,19.3c0,6.1-1.6,11.5-4.7,16.3c-3.2,4.8-7.7,8.5-13.7,11.2C560.9,446,553.6,447.4,545,447.4
			z"/>
		<path class="st8" d="M591.4,445.7l32.8-109.2h36.6l32.8,109.2h-25.3l-9.8-35.3l13.2,9.9h-53.8l1.4-18.9h47.2l-8,8.7l-9.9-35.5
			l-5.5-22.3h-1.2l-5.4,22.3l-19.7,71.1L591.4,445.7L591.4,445.7z"/>
		<path class="st8" d="M704,445.7V336.5h24.1v109.2H704z"/>
		<path class="st8" d="M506.2,583l43.5-81.9l6.4-7.3l-9.1,0.6h-35.5v-20.7h78l-42.7,82.5l-5,6.5l10.9-0.5h34.4v20.7L506.2,583
			L506.2,583z"/>
		<path class="st8" d="M631.4,584.2c-8.3,0-15.4-1.7-21.3-5c-5.9-3.3-10.3-8.1-13.4-14.4c-3.1-6.3-4.7-13.9-4.7-22.8
			c0-9.2,1.7-17,5-23.3s8-11.1,14-14.4s13-4.9,21.1-4.9c7.8,0,14.4,1.5,19.7,4.4c5.3,3,9.4,7.3,12.1,13.1c2.8,5.8,4.1,12.8,4.1,21.3
			c0,1.1,0,2.3-0.1,3.6c-0.1,1.4-0.2,2.9-0.3,4.7h-52.7c0.6,6.8,2.2,11.8,5,14.9c2.8,3.1,6.6,4.7,11.6,4.7c4.1,0,7.2-0.9,9.4-2.7
			c2.1-1.8,3.4-4.2,3.8-7.1h22.4c-0.5,5.7-2.2,10.6-5.1,14.8c-3,4.2-7,7.4-12.2,9.7C644.5,583,638.4,584.2,631.4,584.2z
			 M624.5,533.4h21.1c-0.2-5.3-1.5-9.2-3.8-11.8c-2.3-2.6-5.9-3.9-10.7-3.9c-5.7,0-9.8,2-12.4,6c-2.6,4-3.9,9.8-4,17.2
			c0.4-2.9,1.4-4.8,2.9-5.9C619.2,533.9,621.5,533.4,624.5,533.4z"/>
		<path class="st8" d="M682.3,583v-82h20.9l2,30.9l-0.9-6.2c0.6-4.5,1.8-8.8,3.5-12.8c1.8-4,4.4-7.3,7.8-9.8
			c3.5-2.5,8.1-3.8,13.9-3.8c7.5,0,13.5,2.4,18,7.2c4.5,4.8,6.8,12.2,6.8,22.1v54.3h-23.4v-45.6c0-5.2-0.5-9.2-1.4-11.9
			c-0.9-2.7-2.2-4.6-3.8-5.6c-1.7-1-3.6-1.5-5.9-1.5c-3.2,0-6,1-8.5,3s-4.3,4.4-5.6,7.2v54.4L682.3,583L682.3,583z"/>
		<path class="st8" d="M784.1,491.7c-3.9,0-7.2-1.4-10-4.1s-4.1-6.2-4.1-10.5s1.4-7.7,4.1-10.4c2.8-2.7,6.1-4,10-4s7.2,1.3,9.9,4
			c2.8,2.7,4.1,6.1,4.1,10.4s-1.4,7.7-4.1,10.5C791.2,490.3,787.9,491.7,784.1,491.7z M772.4,583v-82h23.3v82H772.4z"/>
		<path class="st8" d="M808.1,519.3V501H857v18.3H808.1z M838.5,584c-6.8,0-12-1.7-15.8-5.1c-3.8-3.4-5.7-8.8-5.7-16l-0.2-36.7
			c0-1.9,0.5-3.5,1.6-4.7s2.6-2,4.5-2.3l-6.2-14.9v-2.5l4.3-24.3h19v78.1c0,3.5,0.4,5.9,1.3,7.3c0.9,1.4,2.6,2,5.1,2
			s4.6-0.1,6.3-0.2c1.7-0.1,3.3-0.3,4.8-0.5v18.4c-1.8,0.6-4.5,1-8.1,1.1C845.9,583.9,842.2,584,838.5,584z"/>
		<path class="st8" d="M870.8,583V465.8h22.8v35.3l-1.3,23.4l0.8,6.6l-0.8-5.3c0.6-4.5,1.8-8.8,3.7-12.8c1.9-4,4.6-7.3,8.2-9.8
			c3.6-2.5,8.3-3.8,14.1-3.8c7.4,0,13.4,2.4,17.9,7.2c4.5,4.8,6.8,12.2,6.8,22.1V583h-23.4v-45.6c0-6.9-0.9-11.7-2.6-14.6
			c-1.7-2.9-4.6-4.4-8.6-4.4c-2.9,0-5.6,1-8,2.9c-2.5,1.9-4.4,4.4-5.9,7.5V583L870.8,583L870.8,583z"/>
		<path class="st8" d="M503.5,720.3l32.8-109.2h36.6l32.8,109.2h-25.3l-9.8-35.3l13.2,9.9h-53.9l1.4-18.9h47.2l-8,8.7l-9.9-35.5
			l-5.5-22.3h-1.2l-5.4,22.3l-19.7,71.1H503.5z"/>
		<path class="st8" d="M626.9,720.3l-23.2-81.9H628l7.4,39.2l4.5,24.1h0.8l3.9-24.1l8-39.2h29l8,39.2l3.9,24.3l0.7-0.1l4.5-24.3
			l7.4-39.2h24.3l-23.2,81.9h-27.7l-8.3-36.5l-3.7-23.7h-0.9l-3.8,23.7l-8.2,36.5L626.9,720.3L626.9,720.3z"/>
		<path class="st8" d="M762,721.2c-4.7,0-8.9-0.9-12.7-2.6c-3.8-1.8-6.8-4.3-9-7.7s-3.3-7.6-3.3-12.5c0-5,1-9,3-12.2
			s4.8-5.7,8.3-7.6c3.5-1.8,7.5-3.2,11.9-4.1c3-0.6,6-1.1,9.1-1.5s6.1-0.7,8.9-1c2.8-0.3,5.1-0.5,7.1-0.6v-2.3c0-5.2-0.9-8.9-2.6-11
			c-1.7-2.1-4.7-3.2-9.1-3.2c-2.8,0-5.1,0.4-6.9,1.1c-1.9,0.7-3.3,2.1-4.2,4.1s-1.4,4.7-1.3,8.3h-22.1c-0.6-7.2,0.5-13.2,3.4-17.8
			c2.9-4.7,7-8.2,12.5-10.4c5.5-2.3,12-3.4,19.4-3.4c4.3,0,8.5,0.5,12.5,1.4c4.1,0.9,7.7,2.5,10.9,4.7s5.7,5.3,7.6,9.1
			c1.9,3.9,2.8,8.7,2.8,14.6v53.6h-23.1l0.1-19.2c-0.9,5.5-3.1,10.2-6.7,14.2C775.1,719.2,769.5,721.2,762,721.2z M769.7,705.7
			c2.5,0,4.8-0.5,7-1.4s4.1-2.2,5.7-3.8c1.6-1.6,2.5-3.4,2.9-5.4v-12.9c-2,0.3-4,0.6-6.1,1s-3.9,0.7-5.4,1.1
			c-5,1.1-8.4,2.6-10.3,4.5c-1.9,1.9-2.8,4.4-2.8,7.5c0,2,0.3,3.6,1,5s1.7,2.5,3,3.2C766.2,705.4,767.8,705.7,769.7,705.7z"/>
		<path class="st8" d="M826.9,720.3v-82h20.9l2,32.1l-1.4-4.9c0.5-4.3,1.3-8.2,2.5-11.8c1.2-3.5,2.8-6.6,4.7-9.1
			c1.9-2.6,4.2-4.5,6.9-5.9c2.7-1.4,5.7-2.1,9.2-2.1c1,0,2,0.1,3,0.1c1,0.1,1.9,0.3,2.7,0.5v24.3c-1.7-0.5-3.3-0.8-4.9-0.9
			c-1.6-0.2-3.1-0.3-4.7-0.3c-2.8,0-5.2,0.3-7.5,0.8c-2.2,0.5-4.2,1.3-5.8,2.3c-1.7,1-3,2.3-4.1,3.9v53L826.9,720.3L826.9,720.3z"/>
		<path class="st8" d="M914.4,721.3c-6.4,0-11.9-1.7-16.5-5.2s-8.1-8.4-10.6-14.8c-2.4-6.4-3.6-13.8-3.6-22.4
			c0-8.9,1.4-16.4,4.1-22.7c2.7-6.3,6.5-11.1,11.3-14.4c4.9-3.3,10.5-5,16.8-5c4.1,0,7.6,0.7,10.6,2.1c3,1.4,5.4,3.3,7.2,5.6
			c1.8,2.3,3.1,4.9,3.7,7.7l2.7,7.7l-3.7,5.3c-0.5-1.9-1.3-3.5-2.5-4.9s-2.7-2.4-4.5-3.2s-4-1.1-6.5-1.1c-5.1,0-9,1.9-11.8,5.7
			s-4.2,9.7-4.2,17.6c0,7.6,1.3,13.2,4,17s6.6,5.7,11.7,5.7c2.5,0,4.7-0.4,6.6-1.1c2-0.7,3.6-1.6,4.8-2.7s2-2.1,2.3-3.2l0.9,1
			l-0.9,5c-0.7,3-1.7,5.7-2.9,8.2s-2.7,4.6-4.4,6.4c-1.8,1.8-3.8,3.2-6.3,4.1C920.5,720.8,917.6,721.3,914.4,721.3z M936.6,720.3
			l-0.1-116.9h23.3v116.9H936.6z"/>
		<path class="st8" d="M1008.5,721.6c-7.1,0-13.1-1-18.2-3.1c-5.1-2.1-9-5.2-11.8-9.4s-4.4-9.5-4.7-16h22.8c0.5,4,1.7,7,3.9,8.9
			c2.1,1.9,5,2.9,8.6,2.9c1.8,0,3.5-0.2,5.2-0.6c1.7-0.4,3-1.2,4.1-2.3s1.6-2.6,1.6-4.5c0-1.6-0.4-2.8-1.2-3.8s-1.9-1.8-3.4-2.5
			s-3.3-1.3-5.4-1.9c-2.1-0.6-4.5-1.3-7.1-2.1c-4.7-1.4-9.1-3.1-13.2-5.1c-4.1-2-7.4-4.7-9.9-8c-2.5-3.4-3.8-7.8-3.8-13.2
			c0-8.2,3-14.2,9-18.2s13.8-5.9,23.5-5.9c5.7,0,10.8,0.8,15.4,2.3c4.6,1.6,8.3,4.3,11.3,8.3s4.9,9.5,5.7,16.7l-22.6-0.1
			c-0.5-3.2-1.2-5.6-2.3-7.2c-1.1-1.6-2.4-2.6-3.8-3.2c-1.4-0.5-2.9-0.8-4.4-0.8c-1.7,0-3.2,0.3-4.6,0.8c-1.4,0.6-2.5,1.4-3.3,2.4
			c-0.8,1.1-1.2,2.4-1.2,4c0,1.9,0.6,3.5,1.8,4.9s3,2.5,5.5,3.6c2.5,1,5.6,2.1,9.4,3.1c2.5,0.6,5.3,1.5,8.4,2.4c3.1,1,6.1,2.3,9,4
			c2.9,1.7,5.3,4,7.1,6.9c1.9,2.9,2.8,6.7,2.8,11.3c0,8-3.1,14.2-9.2,18.7C1027.5,719.4,1019.1,721.6,1008.5,721.6z"/>
	</g>
</g>
</svg>
