<?xml version="1.0" encoding="utf-8"?>
<!-- Generator: Adobe Illustrator 27.9.0, SVG Export Plug-In . SVG Version: 6.00 Build 0)  -->
<svg version="1.1" id="Layer_1" xmlns="http://www.w3.org/2000/svg" xmlns:xlink="http://www.w3.org/1999/xlink" x="0px" y="0px"
	 viewBox="0 0 1080 485.6" style="enable-background:new 0 0 1080 485.6;" xml:space="preserve">
<style type="text/css">
	.st0{enable-background:new    ;}
	.st1{fill:#FFFFFF;}
	.st2{fill:#FF0000;}
</style>
<g class="st0">
	<path class="st1" d="M510.4,338.5h-14.8v8.1h12.8l-0.8,5.7h-12v12.9h-6.9v-32.6h21.8V338.5z"/>
	<path class="st1" d="M573.9,363.8c-2.4-1.4-4.3-3.4-5.5-6c-1.2-2.6-1.9-5.5-1.9-8.9c0-3.8,0.8-6.9,2.3-9.4s3.5-4.4,6-5.6
		c2.5-1.2,5.3-1.8,8.3-1.8c3.5,0,6.4,0.7,8.9,2.2c2.4,1.4,4.3,3.4,5.5,6c1.2,2.6,1.8,5.5,1.8,8.9c0,3.8-0.7,6.9-2.2,9.4
		c-1.5,2.5-3.5,4.4-6,5.6c-2.5,1.2-5.3,1.8-8.3,1.8C579.3,366,576.3,365.3,573.9,363.8z M587.8,358.8c1.4-0.9,2.4-2.2,3.1-3.8
		c0.7-1.7,1-3.6,1-5.9c0-3.6-0.8-6.3-2.3-8.3s-3.7-3-6.6-3c-3,0-5.3,1-6.9,2.9c-1.6,2-2.4,4.7-2.4,8.1c0,3.6,0.8,6.3,2.3,8.3
		c1.5,2,3.7,3,6.6,3C584.7,360.2,586.4,359.7,587.8,358.8z"/>
	<path class="st1" d="M683.5,364.9v0.4h-8l-8.2-11.9h-2.7v11.9h-6.9v-32.6h10.9c2.9,0,5.3,0.4,7.2,1.3c1.9,0.9,3.4,2.1,4.3,3.6
		s1.4,3.3,1.4,5.2c0,2.3-0.6,4.2-1.7,5.9s-2.8,2.9-5,3.7L683.5,364.9z M664.6,348h3.1c2.1,0,3.6-0.4,4.8-1.2s1.7-2,1.7-3.8
		c0-1.5-0.5-2.7-1.5-3.5c-1-0.8-2.4-1.2-4.2-1.2h-3.9V348z"/>
	<path class="st1" d="M745.8,364.2c-2.1-1.2-3.6-2.9-4.6-5s-1.4-4.5-1.4-7.2v-19.3h6.9v18.4c0,2.8,0.6,5,1.7,6.6s3.1,2.3,5.9,2.3
		c2.7,0,4.6-0.8,5.7-2.3c1.1-1.6,1.7-3.6,1.7-6.1v-19h6.9v19.2c0,3.3-0.6,6-1.9,8.1c-1.3,2.1-3,3.6-5.2,4.6c-2.2,1-4.7,1.4-7.6,1.4
		C750.6,366,747.9,365.4,745.8,364.2z"/>
	<path class="st1" d="M863.3,332.7v32.6h-6.9V345c-0.4,1.2-1.2,2.9-2.2,4.9l-5.7,11.4h-5.5l-5.8-11.4c-1-2-1.8-3.7-2.2-4.9v20.3H828
		v-32.6h7.3l7.4,14.3c0.6,1.1,1.1,2.2,1.6,3.4c0.5,1.2,0.9,2.2,1.2,3c0.5-1.5,1.4-3.7,2.8-6.4l7.6-14.3H863.3z"/>
	<path class="st1" d="M920.8,362.1l3.2-5c3.1,2,6.2,3,9.1,3c1.9,0,3.4-0.3,4.5-0.9s1.6-1.5,1.6-2.7c0-0.7-0.2-1.3-0.5-1.8
		c-0.4-0.5-1-1-1.9-1.4c-0.9-0.5-2.2-1-4-1.7l-1.2-0.5c-2.1-0.8-3.9-1.6-5.2-2.4c-1.3-0.8-2.3-1.8-3.1-3c-0.8-1.2-1.2-2.7-1.2-4.6
		c0-2,0.6-3.7,1.8-5.1c1.2-1.4,2.7-2.4,4.5-3c1.8-0.6,3.8-1,5.9-1c1.9,0,3.8,0.3,5.8,0.9c2,0.6,3.9,1.5,5.7,2.7l-3.2,4.9
		c-1.6-1-3-1.7-4.2-2.1s-2.6-0.7-4-0.7c-1.6,0-2.8,0.3-3.6,0.8c-0.8,0.5-1.2,1.3-1.2,2.2c0,0.6,0.2,1.1,0.5,1.5s0.9,0.9,1.8,1.4
		s2.1,1,3.7,1.6l1.1,0.4c2.1,0.8,3.9,1.6,5.2,2.3c1.3,0.7,2.4,1.7,3.3,3c0.9,1.3,1.3,3,1.3,5.1c0,2.2-0.6,4-1.7,5.5
		c-1.1,1.5-2.7,2.6-4.7,3.3c-2,0.7-4.2,1.1-6.7,1.1C928.6,366,924.3,364.7,920.8,362.1z"/>
</g>
<g class="st0">
	<path class="st1" d="M411,261.4c-6-2.6-10.8-6.3-14.3-11.2c-3.5-4.9-5.3-10.6-5.4-17.2h23.2c0.3,4.4,1.9,8,4.7,10.5
		c2.8,2.6,6.7,3.9,11.7,3.9c5.1,0,9-1.2,11.9-3.6c2.9-2.4,4.3-5.6,4.3-9.5c0-3.2-1-5.8-2.9-7.9c-2-2.1-4.4-3.7-7.4-4.9
		c-2.9-1.2-7-2.5-12.2-3.9c-7-2.1-12.7-4.1-17.1-6.1c-4.4-2-8.2-5.1-11.3-9.1c-3.2-4.1-4.7-9.5-4.7-16.3c0-6.4,1.6-12,4.8-16.7
		c3.2-4.7,7.7-8.4,13.5-10.9c5.8-2.5,12.4-3.8,19.8-3.8c11.2,0,20.2,2.7,27.2,8.1c7,5.4,10.8,13,11.5,22.7h-23.9
		c-0.2-3.7-1.8-6.8-4.7-9.2c-2.9-2.4-6.8-3.6-11.7-3.6c-4.2,0-7.6,1.1-10.1,3.3c-2.5,2.2-3.8,5.3-3.8,9.4c0,2.9,1,5.3,2.9,7.2
		c1.9,1.9,4.3,3.5,7.1,4.6c2.8,1.2,6.8,2.6,12,4.1c7,2.1,12.8,4.1,17.2,6.2c4.4,2.1,8.3,5.2,11.5,9.3c3.2,4.1,4.8,9.6,4.8,16.3
		c0,5.8-1.5,11.2-4.5,16.1c-3,5-7.4,8.9-13.2,11.8c-5.8,2.9-12.7,4.4-20.6,4.4C423.9,265.3,417.1,264,411,261.4z"/>
	<path class="st1" d="M510.1,156.1v108.1h-21.7V156.1H510.1z"/>
	<path class="st1" d="M606.8,188.6c-2.5-4.5-5.9-8-10.2-10.4c-4.3-2.4-9.4-3.6-15.2-3.6c-6.4,0-12.1,1.4-17,4.3
		c-5,2.9-8.8,7-11.6,12.4c-2.8,5.4-4.2,11.6-4.2,18.6c0,7.2,1.4,13.5,4.3,18.9c2.8,5.4,6.8,9.5,11.9,12.4c5.1,2.9,10.9,4.3,17.7,4.3
		c8.3,0,15-2.2,20.3-6.6c5.3-4.4,8.7-10.5,10.4-18.4h-37.2v-16.6h58.6V223c-1.4,7.5-4.5,14.5-9.3,20.9c-4.8,6.4-10.9,11.5-18.4,15.4
		c-7.5,3.9-15.9,5.8-25.2,5.8c-10.4,0-19.9-2.3-28.3-7c-8.4-4.7-15-11.2-19.8-19.6c-4.8-8.4-7.2-17.9-7.2-28.5
		c0-10.6,2.4-20.2,7.2-28.6c4.8-8.4,11.4-15,19.8-19.7c8.4-4.7,17.8-7,28.1-7c12.2,0,22.8,3,31.8,8.9c9,5.9,15.2,14.3,18.6,25H606.8
		z"/>
</g>
<g>
	<path class="st2" d="M648.8,250.9c-0.8,0-1.5-0.3-2.1-0.8c-0.6-0.5-1-1.3-1.1-2.4c-0.2-0.6-0.2-1.6-0.2-3c0.3-2.7,0.6-4.6,0.9-5.7
		l1.4-4.8c1.1-4.6,2.2-8.8,3.4-12.6c2.7-7.6,7-19.1,12.8-34.3c0.5-1.1,1.6-3.3,3.4-6.6c0.5-0.8,1.1-1.3,1.8-1.5
		c0.8-0.2,1.5-0.1,2.1,0.3c1.4,0.8,1.8,2.1,1.1,3.9l-1.4,2.7l-13.5,35c-0.2,0.5-0.5,1.3-0.9,2.5c-0.5,1.2-0.7,2.4-0.7,3.4
		c0,1.1,0.2,1.9,0.5,2.5c4.7-8.5,10.7-17,17.8-25.4c3.3-3.7,6.4-6.2,9.2-7.8c1.1-0.6,2.2-0.9,3.4-0.9c2.1,0,3.9,1.2,5.3,3.7
		c0.6,1.2,1.1,3.1,1.4,5.7l1.1,11.2c0.3,2.7,1,5.1,2.1,7.1c0.8,1.7,2.1,2.2,3.9,1.6c2.3-0.8,4.8-2.4,7.5-4.8l3.9-3.7l8-7.6
		c2.1-1.8,3.7-3.2,4.6-4.1c0.9-0.9,1.5-1.5,1.8-1.8c1.1-1.1,2.1-1.1,3.2,0c1.1,0.9,1.4,2,0.9,3.2c-0.5,1.2-1.1,2.3-2.1,3.2
		c-1.4,1.4-6.1,5.7-14.2,13l-4.3,3.9c-2.7,2.6-5.8,4.2-9.2,4.8l-2.1,0.2c-3,0-5.5-1.6-7.3-4.8c-1.5-2.9-2.4-5.7-2.5-8.5
		c-0.6-5.6-1.1-10.1-1.6-13.5c-0.2-0.9-0.6-1.5-1.3-1.7c-0.7-0.2-1.3,0-1.9,0.6c-3.2,2.9-5.5,5.2-6.9,6.9c-7.9,9.3-14.9,20-20.8,32
		c-0.3,0.5-0.9,1.6-1.7,3.5c-0.8,1.9-2,3.4-3.5,4.5C650.5,250.7,649.7,250.9,648.8,250.9z"/>
	<path class="st2" d="M720.4,233.5c-1.4,0-2.5-0.5-3.4-1.5c-0.9-1-1.5-2.3-1.6-4c0-1.7,0.1-2.9,0.2-3.7c2.9-11.4,7.6-20.4,14.2-26.8
		c0.8-0.9,1.9-1.9,3.4-3c2.4-2,5-3,7.5-3c2.3,0,4.6,0.9,6.9,2.7c1.1,0.8,1.8,1.1,2.1,1.1c0.5,0,1.1-0.6,2.1-1.8
		c1.2-1.4,2.9-3.6,5-6.6l3-4.1l3.4-4.8c1.4-1.4,2.7-1.8,4.1-1.1c1.5,0.9,1.9,2.4,1.1,4.6l-3,6.2c-4.1,8.1-7.2,15.7-9.2,22.9
		c-1.5,5.5-2.3,9.6-2.3,12.4c0,0.8,0.2,1.3,0.7,1.7c0.5,0.4,1,0.4,1.6,0.1c2.7-1.2,4.8-2.2,6.2-3c3.5-2.3,6.3-4.3,8.5-6.2
		c2.1-1.7,4-3.4,5.7-5l5.5-4.8c2.4-2,3.7-3.1,3.9-3.2c0.9-0.8,1.8-0.7,2.7,0.2c1.1,0.8,1.4,1.9,0.9,3.4c0,0.1-0.5,0.7-1.4,1.6
		c-8.7,8.7-16.5,15.2-23.5,19.4c-4.3,2.9-7.9,4.3-11,4.3c-3.8,0-5.7-2.2-5.7-6.6c0-2.1,0.3-5.3,0.9-9.6c0.3-1.7,1-4.6,2.1-8.7
		c-1.8,0.6-3.2,1.5-4,2.6s-1.4,1.9-1.7,2.2c-6.2,7.5-11.6,13.1-16,16.9c-2.3,2-4.3,3.4-6.2,4.3C722.2,233.3,721.3,233.5,720.4,233.5
		z M724.5,224.6c5.8-4.9,12.3-12,19.7-21.3c0.3-0.1,0.6-0.5,0.9-1.1c0.2-0.3,0.2-0.7,0.2-1.1c0-0.9-0.4-1.6-1.1-2.1
		c-1.1-0.8-2.1-1.1-3.2-1.1c-0.3,0-0.9,0.2-1.8,0.5c-1.4,0.5-2.6,1.2-3.7,2.3c-7.2,6.2-11.7,14.3-13.5,24.2c0.3,0.1,0.5,0.3,0.5,0.5
		C723.2,225.4,723.9,225.2,724.5,224.6z"/>
	<path class="st2" d="M782.6,269.4c-2.4,0-4.4-1.6-5.9-4.8c-0.9-2.1-1.4-5-1.4-8.7c0-3.8,0.3-7.9,0.9-12.1c0.6-4.3,1-6.9,1.1-8
		c2.4-14.9,7.5-32.9,15.1-54c0.8-2.4,1.6-4.7,2.5-6.9l1.8-5c0.5-1.2,0.7-2.2,0.7-3s-0.3-1.3-1-1.5c-0.7-0.2-1.8-0.3-3.3-0.1
		l-18.5,2.3c-0.6,0.1-1.4,0.3-2.3,0.5c-0.9,0.1-2.1,0.2-3.4,0.2c-1.1,0-1.9-0.1-2.5-0.2c-0.9-0.3-1.5-0.8-1.6-1.4v-0.7
		c0-0.9,0.4-1.5,1.1-1.8c1.5-0.5,3.7-1,6.4-1.6c4.7-0.6,12.9-1.6,24.5-3c2.7-0.1,4.7-1.4,5.7-3.9l6.2-13.7c2.7-4.9,4.9-8.5,6.4-11
		c0.6-1.4,1.4-2.4,2.3-3.1c0.9-0.7,1.8-1,2.5-1c0.6,0,1.1,0.2,1.5,0.7c0.4,0.5,0.6,1.1,0.6,1.8c0,0.9-0.4,2.3-1.1,4.1
		c-1.2,3.1-4,9.1-8.5,18.3c-0.2,0.3-0.5,0.9-0.9,1.9c-0.5,1-0.7,2.2-0.7,3.5c1.5,0.3,2.5,0.5,3,0.5l2.5-0.2c7.2-0.8,14-1.4,20.6-1.8
		l21-2.1c1.8-0.1,3.4-0.2,4.8-0.1s2.5,0.1,3.4,0.1c0.9,0,1.5,0.8,1.8,2.3c0,1.2-0.5,2-1.4,2.3c-1.5,0.3-3.5,0.6-6,0.9l-49.2,4.3
		c-1.7,0.1-3,0.6-4.1,1.3c-1.1,0.7-1.9,1.8-2.5,3.3c-2.7,6.2-6.4,16.3-11,30.1c-4.6,13.8-7.6,24.2-9.1,31.2
		c-1.5,6.1-2.7,13.7-3.4,22.9c0,0.8-0.1,1.5-0.2,2.3c-0.2,0.8-0.2,1.5-0.2,2.3c0,2.4,0.8,4.3,2.5,5.7c1.5-0.1,2.7-0.6,3.7-1.5
		s1.8-1.8,2.6-2.7s1.4-1.7,1.7-2.2c4.7-5.9,11-14.6,19-25.8c1.2-1.7,4-5.4,8.2-11.3c4.3-5.9,7.3-9.8,9.2-11.8
		c0.2-0.1,0.7-0.8,1.5-1.9c0.8-1.1,2-2,3.5-2.6c0.9-0.3,1.8-0.2,2.5,0.2c1.2,0.9,1.5,2.1,0.7,3.4c0,0.5-0.2,0.9-0.7,1.4
		c-2.9,3.4-8.6,10.9-17.2,22.6c-1.4,1.8-4.8,6.5-10.3,14.1s-10.5,13.9-15.1,19.1c-1.5,2.1-3.7,3.8-6.4,5
		C785,269.1,783.8,269.4,782.6,269.4z"/>
	<path class="st2" d="M872.9,235.6c-3.8,0-6.4-2.2-7.8-6.6c-0.5-1.7-0.7-4.7-0.7-9.1l1.6-11.7c0-0.3,0.1-0.9,0.3-1.7
		c0.2-0.8,0-1.3-0.8-1.5h-0.5c-0.6,0-1.1,0.3-1.6,0.8c-0.5,0.5-0.8,0.9-0.9,1l-6.4,6.4c-5.9,5.9-11,10.3-15.3,13
		c-2.7,1.8-4.9,3.1-6.4,3.7c-0.9,0.3-1.7,0.5-2.3,0.5c-1.2,0-2.3-0.4-3.3-1.3c-1-0.8-1.6-1.9-1.7-3.3c-0.3-1.2-0.5-2.2-0.5-3
		l0.2-2.3c1.2-9.4,4-17.9,8.2-25.4l1.8-2.5c0.9-0.9,1.8-1.4,2.5-1.4c0.8,0,1.4,0.2,1.8,0.7c0.8,0.8,1.1,1.4,1.1,2.1
		c0,0.5-0.2,1.1-0.7,1.8l-2.3,3.9c-3.2,5.9-5.4,12.8-6.6,20.6v0.9c0,0.9,0.3,1.4,0.9,1.6c0.2,0.1,0.5,0.2,0.9,0.2
		c0.3,0,0.9-0.3,1.8-0.9l7.1-5.3c6.2-5.2,13.4-12.5,21.5-21.9l6.4-6.4c0.9-0.9,2.1-1.1,3.4-0.5c0.6,0.1,1.1,0.5,1.4,1.1
		c0.3,0.6,0.4,1.2,0.2,1.8c-0.5,2.6-1,4.8-1.6,6.6c-2.1,6.6-3.6,13.6-4.3,21l-0.2,3.4c0,5,1.1,7.6,3.4,7.6c0.9,0,1.9-0.2,3-0.7
		c3.3-1.2,6.5-3.1,9.6-5.7c5.2-4.1,10.7-9.5,16.5-16.2c1.4-1.5,2.8-3,4.3-4.3c0.3-0.3,0.8-0.4,1.4-0.3s1.1,0.3,1.4,0.6
		c1.2,1.1,1.5,2.1,0.9,3.2c-0.6,1.2-1.1,2.1-1.6,2.5c-7,8.4-13.6,14.9-19.7,19.7c-3.7,2.7-6.6,4.6-8.7,5.5c-2.3,0.9-4.2,1.4-5.7,1.6
		C874.5,235.5,873.8,235.6,872.9,235.6z"/>
	<path class="st2" d="M895,253.4c0-0.6,0-1.5-0.1-2.7s0-2.3,0.1-3.2c2-14,5.3-26.2,10.1-36.6l7.3-17.1c0.3-0.5,0.6-0.9,0.8-1.5
		c0.2-0.5,0.6-1.1,1-1.7c0.8-0.8,1.7-1,2.7-0.7c1.4,0.5,1.9,1.2,1.6,2.3c0,1.5-0.4,3.2-1.1,5c-1.2,3.1-3.2,7.6-5.9,13.7
		c-3,7.2-5.5,14.2-7.3,21c-0.6,2.1-0.9,3.7-0.9,4.6s0.2,1.8,0.7,2.7h-0.2l0.2,0.2l8.9-18.1c3.3-6.1,7-11.1,11-14.9
		c1.8-1.8,3.6-3.3,5.3-4.3c0.9-0.5,1.8-0.7,2.7-0.7c1.8,0,3.3,0.9,4.3,2.7c0.5,0.8,0.9,1.6,1.3,2.6c0.4,1,0.8,1.9,1.3,2.6
		c1.7,2.7,3.5,4.1,5.5,4.1c1.1,0,2.4-0.4,3.9-1.1c4.3-2.3,8.3-5.2,12.1-8.7c0.9-0.9,1.9-1.7,3-2.3c0.2-0.1,0.5-0.2,0.9-0.2
		c0.6,0,1.2,0.2,1.8,0.7c0.9,0.9,1.1,1.8,0.7,2.7c-0.6,1.4-1.3,2.4-2.1,3c-3.8,4.1-8.8,7.7-15.1,10.7c-1.5,0.8-3.3,1.1-5.3,1.1
		c-3.8,0-6.9-1.7-9.4-5l-3.4-5.5c-1.4,0-2.7,0.8-3.9,2.3c-3.7,3.7-7.1,8.5-10.3,14.6l-4.3,8.7c-0.6,1.5-2.8,6-6.6,13.5
		c-1.4,2.7-2.7,5.1-4.1,7.1c-0.8,1.2-1.8,1.8-3.2,1.8C896.7,257.1,895.3,255.9,895,253.4z"/>
	<path class="st2" d="M958.7,241.4c-2.1-1.4-3.5-3.5-4.2-6.3c-1.1-3.1-1.5-5.6-1.4-7.8c-0.2-2.7,0.4-6.2,1.6-10.5
		c2.9-9.1,7.3-16.5,13.3-22.2c2.3-2.1,4.5-3.8,6.5-4.9c2.1-1.1,4.4-1.7,7-1.7c2.3,0,4.1,0.8,5.4,2.3c1.3,1.5,1.8,3.6,1.5,6.2
		c-0.6,4.6-2.5,8.5-5.7,11.9c-3.8,4.1-7.3,7.4-10.5,9.7c-3.2,2.4-6.9,3.8-11,4.2c-0.9,0.1-1.5,0.8-1.8,2.1c-0.2,0.6-0.2,1.5-0.2,2.7
		c0,2.1,0.3,3.9,0.9,5.3c0.9,4.3,3.5,6,7.8,5.3c2.7-0.6,6-1.8,9.8-3.7c6-3.2,11.4-7.1,16.5-11.7l16.2-15.3l4.3-4.1
		c1.2-1.1,2.4-1.1,3.4,0c1.1,1.1,1.3,2.2,0.7,3.4c-0.3,0.6-0.9,1.4-1.8,2.3c-9.2,9.3-16.8,16.5-22.9,21.5
		c-5.3,4.4-10.8,7.9-16.2,10.5c-4.6,2-8.5,3-11.7,3C963.2,243.6,960.8,242.9,958.7,241.4z M980.1,201.5c1.4-2.1,2.1-3.9,2.1-5.3
		c-0.2-1.5-0.8-2.1-2.1-1.8c-1.4,0.1-2.7,0.7-4.1,1.6c-6.1,4-10.7,10-13.7,18.1c0,0.8,0.2,1.1,0.5,1.1c0.8,0.3,1.2,0.4,1.4,0.2
		C971.9,211.4,977.2,206.7,980.1,201.5z"/>
</g>
<g>
	<g>
		<path class="st2" d="M374.1,290.2c2.1,1,4.2,2,6.3,3l2.7-5.8c-2.1-0.9-4.2-1.9-6.3-3C290.6,242,246.1,150.9,272.5,75.7l-6.8-3.4
			C237.8,150.7,284.1,246,374.1,290.2z"/>
	</g>
	<g>
		<path class="st2" d="M170.1,162.2c-0.2-2.1-0.4-4.1-0.7-6.2l-6.7,0.6c0.3,2,0.5,4.1,0.8,6.2c8.5,85.4-49.6,161.4-131.7,175.8
			l0.7,6.8C118.1,330.6,179,251.4,170.1,162.2z"/>
	</g>
	<g>
		<path class="st2" d="M165.2,377.2c-1.8,1.1-3.5,2.2-5.2,3.4l4.1,4.9c1.7-1.2,3.4-2.3,5.2-3.4c72.5-45.8,172.5-36.3,230,19.9
			l5.8-3.6C345.4,339.5,240.9,329.4,165.2,377.2z"/>
	</g>
	<g>
		<path class="st2" d="M361.8,282c2,0.8,3.9,1.6,5.9,2.4l2.1-5.4c-2-0.8-3.9-1.5-5.9-2.4c-80.6-34.4-126.3-115.4-106.7-185.2
			l-6.4-2.7C230.2,161.5,277.7,246.1,361.8,282z"/>
	</g>
	<g>
		<path class="st2" d="M169.4,175.4c-0.3-1.9-0.6-3.7-1-5.6l-6,0.9c0.4,1.9,0.7,3.7,1,5.6C176,253.7,127.7,325.9,54.1,343l1,6.1
			C132,331.5,182.6,256.2,169.4,175.4z"/>
	</g>
	<g>
		<path class="st2" d="M177.5,371.7c-1.5,1.1-3,2.2-4.5,3.4l4.1,4.2c1.5-1.1,2.9-2.3,4.5-3.4c63.1-45.4,154.4-41.5,209.8,6.9l5-3.6
			C338.6,328.5,243.3,324.4,177.5,371.7z"/>
	</g>
	<g>
		<path class="st2" d="M350.2,275.2c1.8,0.7,3.6,1.3,5.5,1.9l1.6-5c-1.8-0.6-3.6-1.2-5.5-1.9c-75.1-27.4-121.2-99-107.5-163.7
			l-6-2.2C223.9,171.8,271.9,246.6,350.2,275.2z"/>
	</g>
	<g>
		<path class="st2" d="M169.5,187.4c-0.4-1.7-0.8-3.4-1.2-5.1l-5.4,1.1c0.5,1.7,0.9,3.4,1.3,5.1c16,70.1-23.7,138.3-89.4,157.6
			l1.3,5.6C144.7,331.7,186.2,260.5,169.5,187.4z"/>
	</g>
	<g>
		<path class="st2" d="M188.2,366.1c-1.3,1.1-2.6,2.2-3.9,3.3l3.9,3.7c1.2-1.1,2.6-2.2,3.9-3.3c54.6-44.5,137.6-45.5,190.7-4
			l4.3-3.5C331.9,318.7,245.2,319.7,188.2,366.1z"/>
	</g>
	<g>
		<path class="st2" d="M339.3,269.6c1.7,0.5,3.4,1,5.1,1.5l1.2-4.7c-1.7-0.5-3.4-0.9-5.1-1.5c-69.7-21.3-115.6-84.4-107-144.1
			l-5.5-1.7C218.7,181.4,266.6,247.3,339.3,269.6z"/>
	</g>
	<g>
		<path class="st2" d="M170.3,198.3c-0.4-1.5-0.9-3-1.4-4.6L164,195c0.5,1.5,1,3,1.4,4.6c18.6,63.2-13.5,127.3-72,148.1l1.5,5
			C156.2,331.2,189.7,264.2,170.3,198.3z"/>
	</g>
	<g>
		<path class="st2" d="M197.6,360.4c-1.1,1-2.2,2.1-3.3,3.2l3.8,3.1c1.1-1.1,2.2-2.1,3.3-3.2c46.9-43.3,122.2-48.2,172.7-13l3.7-3.4
			C325.2,310.2,246.6,315.3,197.6,360.4z"/>
	</g>
	<g>
		<path class="st2" d="M329.1,265c1.6,0.4,3.1,0.8,4.7,1.1l0.8-4.3c-1.6-0.3-3.1-0.7-4.7-1.1c-64.5-16-109.8-71.3-105.4-126.2
			l-5.1-1.3C214.6,190.5,261.8,248.2,329.1,265z"/>
	</g>
	<g>
		<path class="st2" d="M171.7,208.2c-0.5-1.4-1-2.7-1.6-4.1l-4.3,1.4c0.6,1.3,1.1,2.7,1.6,4.1c20.5,56.7-4.8,116.8-56.7,138.7
			l1.6,4.5C166.6,330.1,193.1,267.4,171.7,208.2z"/>
	</g>
	<g>
		<path class="st2" d="M205.9,354.8c-1,1-1.9,2-2.8,3.1l3.6,2.7c0.9-1,1.9-2.1,2.8-3.1c40.1-41.8,108-50,155.9-20.4l3.2-3.3
			C318.6,302.7,247.7,311.2,205.9,354.8z"/>
	</g>
	<g>
		<path class="st2" d="M319.6,261.3c1.4,0.3,2.9,0.5,4.3,0.8l0.5-4c-1.4-0.2-2.9-0.5-4.3-0.8c-59.4-11.4-103.7-59.7-102.9-109.9
			l-4.7-0.9C211.4,198.9,257.6,249.3,319.6,261.3z"/>
	</g>
	<g>
		<path class="st2" d="M173.5,217.2c-0.5-1.2-1.1-2.4-1.6-3.6l-3.9,1.5c0.6,1.2,1.1,2.4,1.7,3.6c21.9,50.7,2.4,106.8-43.4,129.3
			l1.7,4C175.9,328.7,196.4,270.2,173.5,217.2z"/>
	</g>
	<g>
		<path class="st2" d="M213,349.3c-0.8,1-1.6,2-2.4,2.9l3.4,2.3c0.8-1,1.6-2,2.4-2.9c33.9-40.1,95.1-50.9,140.2-26.2l2.7-3.2
			C312.3,296.2,248.4,307.5,213,349.3z"/>
	</g>
	<g>
		<path class="st2" d="M310.7,258.4c1.3,0.2,2.6,0.3,4,0.5l0.2-3.7c-1.3-0.1-2.6-0.3-4-0.5c-54.5-7.5-97.5-49.3-99.7-95.2l-4.3-0.6
			C209,206.8,253.8,250.5,310.7,258.4z"/>
	</g>
	<g>
		<path class="st2" d="M175.7,225.4c-0.6-1.1-1.1-2.2-1.7-3.2l-3.4,1.5c0.6,1.1,1.2,2.1,1.7,3.2c22.8,45.2,8.3,97.3-31.9,120.1
			l1.8,3.6C184.3,326.9,199.5,272.5,175.7,225.4z"/>
	</g>
	<g>
		<path class="st2" d="M219.1,343.9c-0.7,0.9-1.4,1.9-2,2.8l3.2,1.9c0.6-0.9,1.3-1.9,2-2.8c28.4-38.2,83.3-51.1,125.6-30.8l2.2-3
			C306.1,290.6,248.8,304,219.1,343.9z"/>
	</g>
	<g>
		<path class="st2" d="M302.5,256.1c1.2,0.1,2.4,0.2,3.6,0.2l0-3.4c-1.2-0.1-2.4-0.1-3.6-0.2c-49.9-4.2-91.3-40.2-95.9-82l-4-0.3
			C207.3,214.1,250.4,251.8,302.5,256.1z"/>
	</g>
	<g>
		<path class="st2" d="M178.2,232.7c-0.6-1-1.1-1.9-1.7-2.9l-3,1.6c0.6,0.9,1.2,1.9,1.7,2.9c23.3,40.1,13.2,88.3-22,111.1l1.9,3.2
			C191.9,324.9,202.4,274.5,178.2,232.7z"/>
	</g>
	<g>
		<path class="st2" d="M224.4,338.6c-0.6,0.9-1.1,1.8-1.7,2.6l3,1.6c0.5-0.9,1.1-1.8,1.6-2.7c23.6-36.3,72.6-50.7,112.2-34.3
			l1.9-2.9C300.2,285.7,249,300.8,224.4,338.6z"/>
	</g>
	<g>
		<path class="st2" d="M294.9,254.5c1.1,0,2.2,0.1,3.3,0.1l-0.2-3.1c-1.1,0-2.2,0-3.3,0c-45.5-1.4-85.1-32.2-91.7-70.1l-3.6-0.1
			C206.1,220.8,247.5,253.1,294.9,254.5z"/>
	</g>
	<g>
		<path class="st2" d="M180.8,239.2c-0.6-0.9-1.1-1.7-1.7-2.5l-2.6,1.6c0.6,0.8,1.2,1.7,1.8,2.5c23.4,35.5,17.1,80-13.5,102.4
			l1.9,2.8C198.6,322.7,205.2,276.2,180.8,239.2z"/>
	</g>
	<g>
		<path class="st2" d="M228.9,333.6c-0.5,0.8-0.9,1.7-1.4,2.5l2.9,1.3c0.4-0.8,0.9-1.7,1.3-2.5c19.3-34.2,62.9-49.8,99.7-36.8
			l1.5-2.7C294.5,281.6,249,297.9,228.9,333.6z"/>
	</g>
	<g>
		<path class="st2" d="M288,253.4c1,0,2-0.1,3-0.1l-0.4-2.8c-1,0.1-2,0.1-3,0.1c-41.3,1-79.1-25.2-87.2-59.4l-3.3,0.1
			C205.5,227,244.8,254.4,288,253.4z"/>
	</g>
	<g>
		<path class="st2" d="M183.6,245.1c-0.6-0.8-1.1-1.5-1.7-2.2l-2.3,1.6c0.6,0.7,1.2,1.5,1.7,2.2c23.3,31.2,20.1,72.1-6.3,94.1
			l1.9,2.5C204.5,320.3,207.9,277.6,183.6,245.1z"/>
	</g>
	<g>
		<path class="st2" d="M232.6,328.8c-0.4,0.8-0.7,1.6-1.1,2.3l2.7,1c0.3-0.8,0.7-1.6,1.1-2.4c15.5-32.2,54.1-48.5,88.3-38.4l1.2-2.5
			C289.2,278.2,248.8,295.2,232.6,328.8z"/>
	</g>
	<g>
		<path class="st2" d="M281.6,252.7c0.9-0.1,1.8-0.2,2.7-0.2l-0.5-2.5c-0.9,0.1-1.8,0.2-2.7,0.3c-37.4,2.9-73.1-19.1-82.6-49.9
			l-3,0.2C205.3,232.7,242.5,255.8,281.6,252.7z"/>
	</g>
	<g>
		<path class="st2" d="M186.4,250.2c-0.6-0.7-1.1-1.3-1.7-1.9l-2,1.5c0.6,0.6,1.1,1.3,1.7,1.9c22.9,27.3,22.4,64.8-0.3,86.1l1.8,2.2
			C209.8,317.9,210.4,278.7,186.4,250.2z"/>
	</g>
	<g>
		<path class="st2" d="M235.8,324.2c-0.3,0.7-0.6,1.5-0.8,2.2l2.5,0.8c0.3-0.7,0.5-1.5,0.8-2.2c12.2-30.1,46.3-47,77.9-39.4l1-2.4
			C284.1,275.3,248.5,292.8,235.8,324.2z"/>
	</g>
	<g>
		<path class="st2" d="M275.8,252.4c0.8-0.1,1.6-0.2,2.4-0.4l-0.6-2.3c-0.8,0.1-1.6,0.3-2.4,0.4c-33.8,4.5-67.4-13.8-77.8-41.5
			l-2.7,0.4C205.4,237.9,240.5,257.1,275.8,252.4z"/>
	</g>
	<g>
		<path class="st2" d="M189.3,254.8c-0.5-0.6-1.1-1.1-1.6-1.7l-1.7,1.5c0.6,0.6,1.1,1.1,1.6,1.7c22.4,23.8,24.1,58,4.7,78.6l1.8,1.9
			C214.4,315.4,212.7,279.6,189.3,254.8z"/>
	</g>
	<g>
		<path class="st2" d="M238.4,319.9c-0.2,0.7-0.4,1.4-0.6,2l2.3,0.6c0.2-0.7,0.4-1.4,0.6-2c9.3-28.1,39.3-45.1,68.3-39.8l0.7-2.2
			C279.4,272.9,248.1,290.6,238.4,319.9z"/>
	</g>
	<g>
		<path class="st2" d="M270.5,252.4c0.7-0.1,1.5-0.3,2.2-0.4l-0.7-2c-0.7,0.2-1.5,0.3-2.2,0.5c-30.4,5.8-62-9.3-72.9-34l-2.4,0.5
			C205.8,242.7,238.8,258.5,270.5,252.4z"/>
	</g>
	<g>
		<path class="st2" d="M192.2,258.9c-0.5-0.5-1.1-1-1.6-1.5l-1.5,1.5c0.5,0.5,1.1,1,1.6,1.5c21.7,20.6,25.2,51.7,8.9,71.5l1.7,1.6
			C218.5,312.9,214.8,280.4,192.2,258.9z"/>
	</g>
	<g>
		<path class="st2" d="M240.4,315.8c-0.2,0.6-0.3,1.3-0.5,1.9l2.1,0.5c0.1-0.6,0.3-1.3,0.4-1.9c6.8-26.1,33-43.1,59.7-39.6l0.5-2.1
			C274.9,270.9,247.6,288.6,240.4,315.8z"/>
	</g>
	<g>
		<path class="st2" d="M265.7,252.7c0.7-0.2,1.3-0.3,2-0.5l-0.7-1.8c-0.6,0.2-1.3,0.4-2,0.5c-27.2,6.8-56.8-5.4-68.1-27.4l-2.2,0.5
			C206.4,247,237.3,259.8,265.7,252.7z"/>
	</g>
	<g>
		<path class="st2" d="M195.1,262.4c-0.5-0.4-1-0.9-1.5-1.3l-1.2,1.4c0.5,0.4,1,0.8,1.5,1.2c20.9,17.7,25.9,45.9,12.2,64.8l1.6,1.4
			C222,310.4,216.8,280.9,195.1,262.4z"/>
	</g>
	<g>
		<path class="st2" d="M242.1,312c-0.1,0.6-0.2,1.2-0.3,1.8l1.9,0.3c0.1-0.6,0.2-1.2,0.3-1.8c4.7-24.1,27.4-40.9,51.8-39.1l0.4-1.9
			C270.8,269.3,247,286.9,242.1,312z"/>
	</g>
	<g>
		<path class="st2" d="M261.3,253.2c0.6-0.2,1.2-0.4,1.8-0.6l-0.8-1.6c-0.6,0.2-1.1,0.4-1.7,0.6c-24.3,7.5-51.8-2.2-63.4-21.7
			l-1.9,0.6C207.3,250.9,236,261,261.3,253.2z"/>
	</g>
	<g>
		<path class="st2" d="M197.8,265.5c-0.5-0.4-1-0.7-1.5-1.1l-1.1,1.3c0.5,0.3,1,0.7,1.5,1.1c19.9,15.1,26.1,40.6,14.8,58.5l1.6,1.2
			C225.1,308,218.6,281.3,197.8,265.5z"/>
	</g>
	<g>
		<path class="st2" d="M243.4,308.5c-0.1,0.5-0.1,1.1-0.2,1.6l1.8,0.2c0-0.5,0.1-1.1,0.2-1.6c2.9-22.2,22.5-38.7,44.8-38.2l0.2-1.8
			C266.9,268.1,246.4,285.3,243.4,308.5z"/>
	</g>
	<g>
		<path class="st2" d="M257.4,253.9c0.5-0.2,1-0.4,1.5-0.6l-0.8-1.4c-0.5,0.2-1,0.4-1.5,0.6c-21.6,8-47.1,0.6-58.7-16.7l-1.7,0.6
			C208.3,254.4,234.9,262.2,257.4,253.9z"/>
	</g>
	<g>
		<path class="st2" d="M200.6,268.2c-0.5-0.3-0.9-0.6-1.4-0.9l-0.9,1.3c0.5,0.3,0.9,0.6,1.4,0.9c19,12.8,26,35.8,16.8,52.6l1.5,1
			C227.7,305.6,220.3,281.6,200.6,268.2z"/>
	</g>
	<g>
		<path class="st2" d="M244.4,305.1c0,0.5-0.1,1-0.1,1.5l1.6,0.1c0-0.5,0-1,0.1-1.5c1.3-20.4,18.2-36.4,38.4-37l0.1-1.6
			C263.4,267.2,245.7,283.8,244.4,305.1z"/>
	</g>
	<g>
		<path class="st2" d="M253.9,254.6c0.5-0.2,0.9-0.4,1.4-0.6l-0.8-1.3c-0.4,0.2-0.9,0.4-1.4,0.6c-19.1,8.4-42.7,2.8-54.2-12.3
			l-1.5,0.7C209.4,257.5,233.9,263.4,253.9,254.6z"/>
	</g>
	<g>
		<path class="st2" d="M203.2,270.5c-0.4-0.3-0.9-0.5-1.3-0.8l-0.7,1.2c0.4,0.2,0.9,0.5,1.3,0.8c17.9,10.8,25.7,31.4,18.3,47.2
			l1.4,0.9C229.9,303.3,221.9,281.8,203.2,270.5z"/>
	</g>
	<g>
		<path class="st2" d="M245,302.1c0,0.5,0,0.9,0,1.4h1.5c0-0.5,0-0.9,0-1.4c0-18.7,14.4-34.1,32.7-35.7v-1.5
			C260.1,266.5,245,282.6,245,302.1z"/>
	</g>
</g>
<rect x="379.5" y="287.7" class="st2" width="648.1" height="5.4"/>
</svg>
